{"title":"Lemony Snicket's A Series of Unfortunate Events.XviD Ita-Eng","uid":14239599,"size":1952649121,"categoryP":"video","categoryS":"movies","magnet":"?xt=urn:btih:0852f750cb1c13aebede166e919616323c0c9672&amp;dn=Lemony+Snicket%27s+A+Series+of+Unfortunate+Events.XviD+Ita-Eng&amp;tr=udp%3A%2F%2Ftracker.leechers-paradise.org%3A6969&amp;tr=udp%3A%2F%2Fzer0day.ch%3A1337&amp;tr=udp%3A%2F%2Fopen.demonii.com%3A1337&amp;tr=udp%3A%2F%2Ftracker.coppersurfer.tk%3A6969&amp;tr=udp%3A%2F%2Fexodus.desync.com%3A6969","seeders":21,"leechers":7,"uploader":"robbyrs4","files":4,"time":1460130476,"description":"Lemony Snicket's A Series of Unfortunate Events - Una serie di sfortunati eventi (2004).BRrip.XviD - Italian.English.Ac3.5.1.Sub.ita.eng.iCV-MIRCrew\r\n\r\n\r\n\r\n[img]http://i.imgur.com/K8bfNTy.png[/img]\r\n\r\n[url=http://extraimago.com/image/aS6y][img]http://extraimago.com/images/2016/04/08/vlcsnap-2016-04-08-15h16m54s440.th.png[/img][/url] [url=http://extraimago.com/image/aS6L][img]http://extraimago.com/images/2016/04/08/vlcsnap-2016-04-08-15h17m03s853.th.png[/img][/url] [url=http://extraimago.com/image/aS6Q][img]http://extraimago.com/images/2016/04/08/vlcsnap-2016-04-08-15h17m11s615.th.png[/img][/url]\r\n\r\n[img]http://imgur.com/lvhU6.gif[/img]\r\n\r\n\r\n[img]http://i.imgur.com/aVrMohH.png[/img]\r\n\r\n\r\n[spoiler]\r\nGeneral\r\nComplete name                            : Lemony Snicket - Una serie di sfortunati eventi (2004).ita.eng.sub.ita.eng-MIRCrew.avi\r\nFormat                                   : AVI\r\nFormat/Info                              : Audio Video Interleave\r\nFile size                                : 1.82 GiB\r\nDuration                                 : 1h 47mn\r\nOverall bit rate                         : 2 411 Kbps\r\nMovie name                               : ENCODED by.WWWilcorsaroverde.org\r\nWriting application                      : VirtualDubMod 1.5.10.2 (build 2540/release)\r\nWriting library                          : VirtualDubMod build 2540/release\r\n\r\nVideo\r\nID                                       : 0\r\nFormat                                   : MPEG-4 Visual\r\nFormat profile                           :   \r\nFormat settings, BVOP                    : No\r\nFormat settings, QPel                    : No\r\nFormat settings, GMC                     : No warppoints\r\nFormat settings, Matrix                  : Default (H.263)\r\nCodec ID                                 : XVID\r\nCodec ID/Hint                            : XviD\r\nDuration                                 : 1h 47mn\r\nBit rate                                 : 1 501 Kbps\r\nWidth                                    : 718 pixels\r\nHeight                                   : 404 pixels\r\nDisplay aspect ratio                     : 16:9\r\nFrame rate                               : 23.976 fps\r\nColor space                              : YUV\r\nChroma subsampling                       : 4:2:0\r\nBit depth                                : 8 bits\r\nScan type                                : Progressive\r\nCompression mode                         : Lossy\r\nBits/(Pixel*Frame)                       : 0.216\r\nStream size                              : 1.13 GiB (62%)\r\nWriting library                          : XviD 64\r\n\r\nAudio #1\r\nID                                       : 1\r\nFormat                                   : AC-3\r\nFormat/Info                              : Audio Coding 3\r\nMode extension                           : CM (complete main)\r\nCodec ID                                 : 2000\r\nDuration                                 : 1h 47mn\r\nBit rate mode                            : Constant\r\nBit rate                                 : 448 Kbps\r\nChannel(s)                               : 6 channels\r\nChannel positions                        : Front: L C R, Side: L R, LFE\r\nSampling rate                            : 48.0 KHz\r\nBit depth                                : 16 bits\r\nCompression mode                         : Lossy\r\nStream size                              : 346 MiB (19%)\r\nAlignment                                : Split accross interleaves\r\nInterleave, duration                     : 42 ms (1.00 video frame)\r\nInterleave, preload duration             : 500 ms\r\n\r\nAudio #2\r\nID                                       : 2\r\nFormat                                   : AC-3\r\nFormat/Info                              : Audio Coding 3\r\nMode extension                           : CM (complete main)\r\nCodec ID                                 : 2000\r\nDuration                                 : 1h 47mn\r\nBit rate mode                            : Constant\r\nBit rate                                 : 448 Kbps\r\nChannel(s)                               : 6 channels\r\nChannel positions                        : Front: L C R, Side: L R, LFE\r\nSampling rate                            : 48.0 KHz\r\nBit depth                                : 16 bits\r\nCompression mode                         : Lossy\r\nStream size                              : 346 MiB (19%)\r\nAlignment                                : Split accross interleaves\r\nInterleave, duration                     : 42 ms (1.00 video frame)\r\nInterleave, preload duration             : 500 ms\r\n\r\n\r\n[/spoiler]\r\n\r\n[/color][/b][/center]","torrent":{"xt":"urn:btih:0852f750cb1c13aebede166e919616323c0c9672","amp;dn":"Lemony+Snicket%27s+A+Series+of+Unfortunate+Events.XviD+Ita-Eng","amp;tr":["udp%3A%2F%2Ftracker.leechers-paradise.org%3A6969","udp%3A%2F%2Fzer0day.ch%3A1337","udp%3A%2F%2Fopen.demonii.com%3A1337","udp%3A%2F%2Ftracker.coppersurfer.tk%3A6969","udp%3A%2F%2Fexodus.desync.com%3A6969"],"infoHash":"0852f750cb1c13aebede166e919616323c0c9672","infoHashBuffer":{"type":"Buffer","data":[8,82,247,80,203,28,19,174,190,222,22,110,145,150,22,50,60,12,150,114]},"announce":[],"urlList":[]}}